<?xml version="1.0" encoding="utf-8"?>
<!-- Generator: Adobe Illustrator 22.1.0, SVG Export Plug-In . SVG Version: 6.00 Build 0)  -->
<svg version="1.1" id="Layer_1" xmlns="http://www.w3.org/2000/svg" xmlns:xlink="http://www.w3.org/1999/xlink" x="0px" y="0px"
	 viewBox="0 0 1366 768" style="enable-background:new 0 0 1366 768;" xml:space="preserve">
<style type="text/css">
	.st0{fill:#F5F5F5;}
</style>
<title>Asset 2svg_background</title>
<g id="Layer_2_1_">
	<g id="Layer_3">
		<path class="st0" d="M0,0v768h1366V0H0z M736.9,35.7h47.3l23.7,41l-23.7,41h-47.3l-23.7-41L736.9,35.7z M650.3,374.5l-23.7-41
			l23.7-41h47.3l23.7,41l-23.7,41H650.3z M721.3,433.5l-23.7,41h-47.3l-23.7-41l23.7-41h47.3L721.3,433.5z M650.3,267.7l-23.7-41
			l23.7-41h47.3l23.7,41l-23.7,41C697.6,267.7,650.3,267.7,650.3,267.7z M634.7,276.7l-23.7,41h-47.3l-23.7-41l23.7-41H611
			L634.7,276.7z M563.7,342.5H611l23.7,41l-23.7,41h-47.4l-23.6-41L563.7,342.5z M611.1,442.5l23.7,41l-23.7,41h-47.4l-23.7-41
			l23.7-41H611.1z M563.7,550.3H611l23.7,41l-23.7,41h-47.3l-23.7-41L563.7,550.3z M626.7,541.3l23.7-41h47.3l23.7,41l-23.7,41
			h-47.3L626.7,541.3z M713.3,491.3l23.7-41h47.3l23.7,41l-23.7,41H737L713.3,491.3z M784.3,424.5H737l-23.7-41l23.7-41h47.3
			l23.7,41L784.3,424.5z M736.9,324.5l-23.7-41l23.7-41h47.3l23.7,41l-23.7,41H736.9z M784.3,217.7H737l-23.7-41l23.7-41h47.3
			l23.7,41L784.3,217.7z M650.3,85.7h47.3l23.7,41l-23.7,41h-47.3l-23.7-41L650.3,85.7z M563.7,135.7H611l23.7,41l-23.7,41h-47.3
			l-23.7-41L563.7,135.7z M477.1,185.7h47.3l23.7,41l-23.7,41h-47.3l-23.7-41L477.1,185.7z M477.1,392.5h47.3l23.7,41l-23.7,41
			h-47.3l-23.7-41L477.1,392.5z M477.1,682.3l-23.7-41l23.7-41h47.3l23.7,41l-23.7,41H477.1z M611.1,732.3h-47.4l-23.7-41l23.7-41
			H611l23.7,41L611.1,732.3z M697.7,682.3h-47.4l-23.7-41l23.7-41h47.3l23.7,41L697.7,682.3z M784.3,632.3h-47.4l-23.7-41l23.7-41
			h47.3l23.7,41L784.3,632.3z M870.9,582.3h-47.4l-23.7-41l23.7-41h47.3l23.7,41L870.9,582.3z M870.9,374.5h-47.4l-23.7-41l23.7-41
			h47.3l23.7,41L870.9,374.5z M870.9,167.7h-47.4l-23.7-41l23.7-41h47.3l23.7,41L870.9,167.7z"/>
	</g>
</g>
</svg>
