<svg xmlns="http://www.w3.org/2000/svg" viewBox="0 0 1366 768"><defs><style>.cls-1{fill:#f5f5f5;}</style></defs><title>Asset 2svg_background</title><g id="Layer_2" data-name="Layer 2"><g id="Layer_3" data-name="Layer 3"><path class="cls-1" d="M0,0V768H1366V0ZM736.93,35.75h47.34l23.68,41-23.68,41H736.93l-23.67-41ZM650.33,374.5l-23.67-41,23.67-41h47.34l23.67,41-23.67,41Zm71,59-23.67,41H650.33l-23.67-41,23.67-41h47.34Zm-71-165.75-23.67-41,23.67-41h47.34l23.67,41-23.67,41Zm-15.59,9-23.67,41H563.73l-23.68-41,23.68-41h47.34Zm-71,65.75h47.34l23.67,41-23.67,41H563.73l-23.68-41Zm47.34,100,23.67,41-23.67,41H563.73l-23.68-41,23.68-41ZM563.73,550.25h47.34l23.67,41-23.67,41H563.73l-23.68-41Zm62.93-9,23.67-41h47.34l23.67,41-23.67,41H650.33Zm86.6-50,23.67-41h47.34l23.68,41-23.68,41H736.93Zm71-66.75H736.93l-23.67-41,23.67-41h47.34l23.68,41Zm-47.34-100-23.67-41,23.67-41h47.34l23.68,41-23.68,41Zm47.34-106.75H736.93l-23.67-41,23.67-41h47.34l23.68,41Zm-133.94-132h47.34l23.67,41-23.67,41H650.33l-23.67-41Zm-86.6,50h47.34l23.67,41-23.67,41H563.73l-23.68-41Zm-86.61,50h47.35l23.67,41-23.67,41H477.12l-23.67-41Zm0,206.75h47.35l23.67,41-23.67,41H477.12l-23.67-41Zm0,289.75-23.67-41,23.67-41h47.35l23.67,41-23.67,41Zm134,50H563.73l-23.68-41,23.68-41h47.34l23.67,41Zm86.6-50H650.33l-23.67-41,23.67-41h47.34l23.67,41Zm86.6-50H736.93l-23.67-41,23.67-41h47.34l23.68,41Zm86.61-50H823.53l-23.67-41,23.67-41h47.35l23.67,41Zm0-207.75H823.53l-23.67-41,23.67-41h47.35l23.67,41Zm0-206.75H823.53l-23.67-41,23.67-41h47.35l23.67,41Z"/></g></g></svg>